<svg width="19" height="18" viewBox="0 0 19 18" fill="none" xmlns="http://www.w3.org/2000/svg">
<path d="M13.8 4.6H13.808M5.40002 1H13.4C15.6092 1 17.4 2.79086 17.4 5V13C17.4 15.2091 15.6092 17 13.4 17H5.40002C3.19089 17 1.40002 15.2091 1.40002 13V5C1.40002 2.79086 3.19089 1 5.40002 1ZM12.6 8.49605C12.6987 9.16184 12.585 9.84182 12.275 10.4393C11.965 11.0367 11.4745 11.5212 10.8733 11.8238C10.2721 12.1264 9.59074 12.2317 8.92621 12.1248C8.26169 12.0179 7.64779 11.7041 7.17186 11.2282C6.69592 10.7522 6.38217 10.1383 6.27524 9.47382C6.16831 8.80929 6.27364 8.12796 6.57625 7.52674C6.87886 6.92553 7.36333 6.43504 7.96077 6.12504C8.55821 5.81504 9.23819 5.70132 9.90399 5.80005C10.5831 5.90075 11.2119 6.21722 11.6973 6.70269C12.1828 7.18817 12.4993 7.81691 12.6 8.49605Z" stroke="#FBF7F2" stroke-width="1.5" stroke-linecap="round" stroke-linejoin="round"/>
</svg>
