<svg width="20" height="15" viewBox="0 0 20 15" fill="none" xmlns="http://www.w3.org/2000/svg">
<path d="M18.2325 3.53598C18.1374 3.1563 17.9439 2.80843 17.6714 2.5275C17.3989 2.24657 17.0571 2.04252 16.6805 1.93598C15.3045 1.59998 9.80046 1.59998 9.80046 1.59998C9.80046 1.59998 4.29646 1.59998 2.92046 1.96798C2.54386 2.07452 2.20204 2.27857 1.92953 2.5595C1.65703 2.84043 1.46349 3.1883 1.36846 3.56798C1.11663 4.96442 0.993446 6.38102 1.00046 7.79998C0.991481 9.22961 1.11467 10.657 1.36846 12.064C1.47322 12.4319 1.6711 12.7665 1.94297 13.0356C2.21484 13.3046 2.55151 13.499 2.92046 13.6C4.29646 13.968 9.80046 13.968 9.80046 13.968C9.80046 13.968 15.3045 13.968 16.6805 13.6C17.0571 13.4934 17.3989 13.2894 17.6714 13.0085C17.9439 12.7275 18.1374 12.3796 18.2325 12C18.4823 10.614 18.6055 9.20824 18.6005 7.79998C18.6094 6.37034 18.4862 4.94293 18.2325 3.53598Z" stroke="#FBF7F2" stroke-width="1.5" stroke-linecap="round" stroke-linejoin="round"/>
<path d="M8.00049 10.416L12.6005 7.79996L8.00049 5.18396V10.416Z" stroke="#FBF7F2" stroke-width="1.5" stroke-linecap="round" stroke-linejoin="round"/>
</svg>
