<svg width="20" height="16" viewBox="0 0 20 16" fill="none" xmlns="http://www.w3.org/2000/svg">
<path d="M19 0.808093C18.2339 1.34848 17.3857 1.76178 16.488 2.03209C16.0062 1.4781 15.3659 1.08545 14.6537 0.907234C13.9414 0.729022 13.1916 0.77385 12.5057 1.03566C11.8198 1.29746 11.2308 1.76361 10.8184 2.37107C10.406 2.97852 10.1902 3.69796 10.2 4.43209V5.23209C8.79413 5.26855 7.40104 4.95674 6.14483 4.32445C4.88862 3.69216 3.80828 2.759 3.00002 1.60809C3.00002 1.60809 -0.199976 8.80809 7.00002 12.0081C5.35245 13.1265 3.38975 13.6872 1.40002 13.6081C8.60002 17.6081 17.4 13.6081 17.4 4.40809C17.3993 4.18526 17.3779 3.96297 17.336 3.74409C18.1525 2.93889 18.7287 1.92226 19 0.808093Z" stroke="#FBF7F2" stroke-width="1.5" stroke-linecap="round" stroke-linejoin="round"/>
</svg>
