<svg width="17" height="16" viewBox="0 0 17 16" fill="none" xmlns="http://www.w3.org/2000/svg">
<path d="M8.59998 0C4.18064 0 0.599976 3.58067 0.599976 8C0.599976 12.4193 4.18064 16 8.59998 16C13.0193 16 16.6 12.4193 16.6 8C16.6 3.58067 13.0193 0 8.59998 0ZM8.59998 1.33333C9.47644 1.32981 10.3449 1.49984 11.1554 1.83362C11.9658 2.1674 12.7021 2.65833 13.3219 3.27809C13.9416 3.89785 14.4326 4.63418 14.7664 5.44461C15.1001 6.25504 15.2702 7.12353 15.2666 8C15.2702 8.87647 15.1001 9.74496 14.7664 10.5554C14.4326 11.3658 13.9416 12.1021 13.3219 12.7219C12.7021 13.3417 11.9658 13.8326 11.1554 14.1664C10.3449 14.5002 9.47644 14.6702 8.59998 14.6667C7.72351 14.6702 6.85502 14.5002 6.04459 14.1664C5.23416 13.8326 4.49783 13.3417 3.87807 12.7219C3.25831 12.1021 2.76738 11.3658 2.43359 10.5554C2.09981 9.74496 1.92978 8.87647 1.93331 8C1.92978 7.12353 2.09981 6.25504 2.43359 5.44461C2.76738 4.63418 3.25831 3.89785 3.87807 3.27809C4.49783 2.65833 5.23416 2.1674 6.04459 1.83362C6.85502 1.49984 7.72351 1.32981 8.59998 1.33333ZM7.53731 4.5C6.24064 4.5 5.11064 4.62 4.03731 4.95867C3.75331 5.01533 3.51664 5.22933 3.51664 5.62533C3.51664 6.02067 3.80864 6.37 4.20398 6.312C4.37331 6.312 4.48798 6.25 4.59998 6.25C5.50331 6.02333 6.52198 5.91667 7.53731 5.91667C9.51131 5.91667 11.5373 6.35667 12.8913 7.146C13.0606 7.20333 13.118 7.27067 13.2873 7.27067C13.6833 7.27067 13.9593 6.97933 14.0166 6.58333C14.0166 6.24467 13.8473 6.02867 13.6206 5.91667C11.928 4.958 9.68064 4.5 7.53731 4.5ZM7.34998 6.97933C6.16531 6.97933 5.32131 7.14867 4.47464 7.37533C4.19398 7.48667 4.03731 7.662 4.03731 8C4.03731 8.28133 4.26131 8.56267 4.59998 8.56267C4.71464 8.56267 4.76398 8.55733 4.93331 8.5C5.55331 8.33067 6.40464 8.22933 7.30864 8.22933C9.16998 8.22933 10.79 8.68267 11.9753 9.41667C12.0866 9.474 12.202 9.52067 12.3706 9.52067C12.7093 9.52067 12.9333 9.234 12.9333 8.896C12.9333 8.66933 12.8266 8.44533 12.6 8.33333C11.1333 7.43 9.26931 6.97933 7.34998 6.97933ZM7.53731 9.41667C6.57931 9.41667 5.67064 9.52333 4.76664 9.75C4.53998 9.80733 4.37064 9.96867 4.37064 10.25C4.37064 10.4767 4.54798 10.7087 4.82931 10.7087C4.88664 10.7087 5.05064 10.646 5.16264 10.646C5.92093 10.4692 6.69669 10.3782 7.47531 10.3747C8.88398 10.3747 10.1726 10.7133 11.246 11.3333C11.3606 11.3907 11.488 11.4373 11.6 11.4373C11.8266 11.4373 12.0426 11.268 12.1 11.042C12.1 10.758 11.9773 10.6533 11.808 10.542C10.566 9.80733 9.11531 9.41667 7.53731 9.41667Z" fill="#FBF7F2"/>
</svg>
