<svg width="16" height="16" viewBox="0 0 16 16" fill="none" xmlns="http://www.w3.org/2000/svg">
<path d="M1.16133 7.98766C1.16133 4.20821 4.23467 1.13424 8.012 1.13424C9.228 1.13424 10.37 1.4543 11.362 2.01242L11.9047 1.02021C10.7501 0.370313 9.45136 0.0195977 8.12667 0H7.99667C3.60667 0.00666806 0.048 3.53874 0 7.92298V7.99967C0.000951801 9.08927 0.224701 10.1672 0.657493 11.1671C1.09029 12.167 1.72298 13.0679 2.51667 13.8142L3.30667 12.9607C2.62906 12.3217 2.08921 11.5508 1.72029 10.6955C1.35137 9.84022 1.16115 8.91851 1.16133 7.987V7.98766ZM13.5747 2.26847L12.8053 3.09531C13.4573 3.73226 13.9753 4.49323 14.3289 5.33343C14.6824 6.17363 14.8644 7.07608 14.864 7.98766C14.864 11.7658 11.7907 14.8398 8.01333 14.8398C6.82467 14.8398 5.70667 14.5357 4.732 14.0009L4.16267 15.0158C5.33848 15.6619 6.65843 16.0004 8 16C12.4173 16 16.0007 12.4173 16.0007 7.99833C16.0003 6.92953 15.7855 5.87167 15.3689 4.88744C14.9522 3.90321 14.3424 3.01263 13.5753 2.26847H13.5747ZM1.30867 7.98766C1.30863 8.89859 1.49464 9.79993 1.8553 10.6364C2.21595 11.4728 2.74364 12.2268 3.406 12.852L4.19267 12.0012C3.64794 11.4843 3.21416 10.8619 2.91776 10.1719C2.62136 9.48184 2.46856 8.73867 2.46867 7.98766C2.46867 4.92969 4.95533 2.44318 8.012 2.44318C9.00067 2.44318 9.92867 2.7039 10.7333 3.15999L11.29 2.14245C10.2899 1.57756 9.16055 1.28143 8.012 1.28293C4.31667 1.2816 1.30867 4.29023 1.30867 7.98766ZM13.5553 7.98766C13.5553 11.0456 11.0687 13.5322 8.012 13.5322C7.08938 13.5333 6.18121 13.3028 5.37067 12.862L4.80267 13.8729C5.78655 14.4116 6.89035 14.6934 8.012 14.6924C11.7073 14.6924 14.7153 11.6838 14.7153 7.98766C14.7153 6.11527 13.944 4.42226 12.704 3.20467L11.9153 4.05418C12.4356 4.56848 12.8484 5.18106 13.13 5.85631C13.4115 6.53157 13.5561 7.25605 13.5553 7.98766ZM12.2567 7.98766C12.2556 9.11292 11.8082 10.1918 11.0126 10.9874C10.217 11.783 9.13835 12.2303 8.01333 12.2312C7.31389 12.2319 6.62523 12.0587 6.00933 11.7271L5.444 12.732C6.2324 13.1609 7.11586 13.3849 8.01333 13.3835C10.9893 13.3835 13.41 10.963 13.41 7.98633C13.4105 7.27489 13.2699 6.57042 12.9964 5.91367C12.7229 5.25693 12.3219 4.66094 11.8167 4.1602L11.0307 5.00504C11.8163 5.79882 12.2569 6.87071 12.2567 7.98766ZM2.61733 7.98766C2.61733 9.52198 3.262 10.9096 4.294 11.8938L5.076 11.047C4.66279 10.6518 4.33395 10.177 4.10937 9.65119C3.88478 9.12536 3.76911 8.55946 3.76933 7.98766C3.77039 6.86253 4.21773 5.78378 5.01315 4.98819C5.80858 4.1926 6.8871 3.74517 8.012 3.74411C8.74727 3.7436 9.46987 3.93556 10.108 4.3009L10.6613 3.28935C9.85349 2.8312 8.94067 2.59043 8.012 2.59054C5.038 2.59054 2.61733 5.01104 2.61733 7.98766ZM10.9707 7.98766C10.9705 8.7724 10.6587 9.52493 10.1039 10.0798C9.54902 10.6346 8.79657 10.9463 8.012 10.9463C7.53323 10.9465 7.06163 10.83 6.638 10.6069L6.08133 11.5991C6.67494 11.9178 7.33828 12.0843 8.012 12.0839C9.09783 12.0828 10.1389 11.6509 10.9067 10.8829C11.6745 10.115 12.1063 9.07372 12.1073 7.98766C12.108 6.91224 11.6845 5.87997 10.9287 5.11507L10.154 5.94857C10.6779 6.4981 10.9708 7.22833 10.9707 7.98766ZM3.91667 7.98766C3.9163 8.53902 4.02764 9.08474 4.24397 9.59186C4.4603 10.099 4.77713 10.557 5.17533 10.9383L5.94667 10.1048L5.956 10.1141C5.67013 9.83897 5.44276 9.50892 5.28753 9.14375C5.13231 8.77857 5.05242 8.38581 5.05267 7.989C5.05258 7.60044 5.12903 7.21568 5.27765 6.85668C5.42628 6.49769 5.64416 6.1715 5.91885 5.89674C6.19354 5.62199 6.51967 5.40407 6.87859 5.25541C7.23751 5.10676 7.62219 5.03029 8.01067 5.03038C8.52994 5.03011 9.03997 5.16771 9.48867 5.42913L10.0353 4.43026C9.41898 4.07726 8.72091 3.89195 8.01067 3.89281C5.75467 3.88948 3.91667 5.72853 3.91667 7.98766ZM8.37 7.98766C8.36443 8.07885 8.32429 8.16448 8.25777 8.22709C8.19124 8.28969 8.10334 8.32454 8.012 8.32454C7.92066 8.32454 7.83276 8.28969 7.76623 8.22709C7.69971 8.16448 7.65957 8.07885 7.654 7.98766C7.654 7.89261 7.69175 7.80145 7.75895 7.73423C7.82615 7.66702 7.9173 7.62926 8.01233 7.62926C8.10737 7.62926 8.19851 7.66702 8.26571 7.73423C8.33292 7.80145 8.37 7.89261 8.37 7.98766ZM5.74333 7.98766C5.74333 7.38629 5.98218 6.80955 6.40732 6.38432C6.83247 5.95909 7.40909 5.72019 8.01033 5.72019C8.61158 5.72019 9.1882 5.95909 9.61335 6.38432C10.0385 6.80955 10.2773 7.38629 10.2773 7.98766C10.2773 8.58895 10.0385 9.1656 9.61344 9.59077C9.18836 10.0159 8.61182 10.2548 8.01067 10.2548C7.40951 10.2548 6.83297 10.0159 6.40789 9.59077C5.98281 9.1656 5.744 8.58895 5.744 7.98766H5.74333ZM5.84267 7.98766C5.84337 8.56256 6.07201 9.1137 6.47844 9.52021C6.88487 9.92672 7.43589 10.1554 8.01067 10.1561C8.58573 10.1559 9.1372 9.92746 9.54395 9.52088C9.9507 9.11429 10.1795 8.56284 10.18 7.98766C10.18 7.70281 10.1239 7.42075 10.0149 7.15758C9.90594 6.89441 9.74619 6.65529 9.54481 6.45387C9.34343 6.25244 9.10436 6.09267 8.84125 5.98366C8.57813 5.87465 8.29613 5.81855 8.01133 5.81855C7.72654 5.81855 7.44454 5.87465 7.18142 5.98366C6.91831 6.09267 6.67923 6.25244 6.47786 6.45387C6.27648 6.65529 6.11673 6.89441 6.00775 7.15758C5.89876 7.42075 5.84267 7.70281 5.84267 7.98766Z" fill="#FBF7F2"/>
</svg>
