<svg width="289" height="48" viewBox="0 0 289 48" fill="none" xmlns="http://www.w3.org/2000/svg">
<rect width="289" height="48" fill="#FBF7F2"/>
<rect width="241" height="48" fill="#00A5C0"/>
<path d="M15.52 21.296C17.28 21.488 18.688 21.8 19.744 22.232C20.816 22.664 21.592 23.232 22.072 23.936C22.552 24.64 22.792 25.52 22.792 26.576C22.792 27.728 22.416 28.736 21.664 29.6C20.928 30.448 19.904 31.104 18.592 31.568C17.28 32.016 15.784 32.24 14.104 32.24C12.232 32.24 10.648 32.008 9.352 31.544C8.056 31.08 7.088 30.464 6.448 29.696C5.808 28.912 5.488 28.056 5.488 27.128C5.488 26.968 5.536 26.84 5.632 26.744C5.744 26.648 5.88 26.6 6.04 26.6H10.96C11.296 26.6 11.568 26.704 11.776 26.912C12.048 27.168 12.352 27.344 12.688 27.44C13.024 27.52 13.496 27.56 14.104 27.56C15.624 27.56 16.384 27.328 16.384 26.864C16.384 26.672 16.28 26.512 16.072 26.384C15.88 26.24 15.528 26.12 15.016 26.024C14.52 25.912 13.784 25.8 12.808 25.688C10.616 25.432 8.936 24.888 7.768 24.056C6.6 23.208 6.016 22.016 6.016 20.48C6.016 19.392 6.344 18.432 7 17.6C7.656 16.768 8.584 16.12 9.784 15.656C11 15.192 12.408 14.96 14.008 14.96C15.672 14.96 17.128 15.224 18.376 15.752C19.624 16.264 20.576 16.904 21.232 17.672C21.888 18.44 22.216 19.192 22.216 19.928C22.216 20.088 22.16 20.216 22.048 20.312C21.952 20.408 21.816 20.456 21.64 20.456H16.48C16.208 20.456 15.96 20.36 15.736 20.168C15.56 20.008 15.352 19.88 15.112 19.784C14.872 19.688 14.504 19.64 14.008 19.64C12.936 19.64 12.4 19.864 12.4 20.312C12.4 20.552 12.608 20.744 13.024 20.888C13.44 21.016 14.272 21.152 15.52 21.296ZM34.5906 32.24C31.9026 32.24 29.7666 31.656 28.1826 30.488C26.6146 29.32 25.8306 27.496 25.8306 25.016V15.848C25.8306 15.672 25.8946 15.52 26.0226 15.392C26.1506 15.264 26.3026 15.2 26.4786 15.2H31.4946C31.6706 15.2 31.8226 15.264 31.9506 15.392C32.0786 15.52 32.1426 15.672 32.1426 15.848V25.4C32.1426 26.056 32.3586 26.56 32.7906 26.912C33.2386 27.264 33.8386 27.44 34.5906 27.44C35.3426 27.44 35.9346 27.264 36.3666 26.912C36.8146 26.56 37.0386 26.056 37.0386 25.4V15.848C37.0386 15.672 37.1026 15.52 37.2306 15.392C37.3586 15.264 37.5106 15.2 37.6866 15.2H42.7026C42.8786 15.2 43.0306 15.264 43.1586 15.392C43.2866 15.52 43.3506 15.672 43.3506 15.848V25.016C43.3506 27.496 42.5586 29.32 40.9746 30.488C39.4066 31.656 37.2786 32.24 34.5906 32.24ZM62.4933 15.2C62.6693 15.2 62.8213 15.264 62.9493 15.392C63.0773 15.52 63.1413 15.672 63.1413 15.848V31.352C63.1413 31.528 63.0773 31.68 62.9493 31.808C62.8213 31.936 62.6693 32 62.4933 32H58.6293C58.2453 32 57.9253 31.832 57.6693 31.496L52.4373 24.824V31.352C52.4373 31.528 52.3733 31.68 52.2453 31.808C52.1173 31.936 51.9653 32 51.7893 32H47.3253C47.1493 32 46.9973 31.936 46.8693 31.808C46.7413 31.68 46.6773 31.528 46.6773 31.352V15.848C46.6773 15.672 46.7413 15.52 46.8693 15.392C46.9973 15.264 47.1493 15.2 47.3253 15.2H51.2133C51.5973 15.2 51.9093 15.36 52.1493 15.68L57.3813 22.904V15.848C57.3813 15.672 57.4453 15.52 57.5733 15.392C57.7013 15.264 57.8533 15.2 58.0293 15.2H62.4933ZM75.2999 15.2C78.0039 15.2 80.1639 15.784 81.7799 16.952C83.4119 18.12 84.2279 19.928 84.2279 22.376V24.824C84.2279 27.32 83.4199 29.144 81.8039 30.296C80.2039 31.432 78.0359 32 75.2999 32H67.6439C67.4679 32 67.3159 31.936 67.1879 31.808C67.0599 31.68 66.9959 31.528 66.9959 31.352V15.848C66.9959 15.672 67.0599 15.52 67.1879 15.392C67.3159 15.264 67.4679 15.2 67.6439 15.2H75.2999ZM75.4199 27.32C76.1719 27.32 76.7639 27.144 77.1959 26.792C77.6439 26.424 77.8679 25.912 77.8679 25.256V21.944C77.8679 21.288 77.6439 20.784 77.1959 20.432C76.7639 20.064 76.1719 19.88 75.4199 19.88H73.2359V27.32H75.4199ZM92.3065 31.184C92.0985 31.728 91.7385 32 91.2265 32H86.6905C86.5465 32 86.4185 31.952 86.3065 31.856C86.2105 31.744 86.1625 31.616 86.1625 31.472L86.1865 31.328L91.4185 15.992C91.4825 15.784 91.6025 15.6 91.7785 15.44C91.9545 15.28 92.1945 15.2 92.4985 15.2H99.1705C99.4745 15.2 99.7145 15.28 99.8905 15.44C100.067 15.6 100.187 15.784 100.251 15.992L105.483 31.328L105.507 31.472C105.507 31.616 105.451 31.744 105.339 31.856C105.243 31.952 105.123 32 104.979 32H100.443C99.9305 32 99.5705 31.728 99.3625 31.184L98.7625 29.504H92.9065L92.3065 31.184ZM95.8345 19.832L94.1305 24.824H97.5385L95.8345 19.832ZM124.937 15.2C125.081 15.2 125.201 15.256 125.297 15.368C125.409 15.464 125.465 15.576 125.465 15.704C125.465 15.8 125.441 15.896 125.393 15.992L119.345 26V31.352C119.345 31.528 119.281 31.68 119.153 31.808C119.025 31.936 118.873 32 118.697 32H113.585C113.409 32 113.257 31.936 113.129 31.808C113.001 31.68 112.937 31.528 112.937 31.352V26L106.913 15.992C106.865 15.896 106.841 15.808 106.841 15.728C106.841 15.584 106.889 15.464 106.985 15.368C107.097 15.256 107.225 15.2 107.369 15.2H112.433C112.881 15.2 113.209 15.384 113.417 15.752L116.129 20.504L118.913 15.8C119.153 15.4 119.489 15.2 119.921 15.2H124.937ZM151.798 23.24C152.422 23.432 152.958 23.856 153.406 24.512C153.854 25.152 154.078 25.888 154.078 26.72C154.078 28.496 153.502 29.824 152.35 30.704C151.198 31.568 149.518 32 147.31 32H137.422C137.246 32 137.094 31.936 136.966 31.808C136.838 31.68 136.774 31.528 136.774 31.352V15.848C136.774 15.672 136.838 15.52 136.966 15.392C137.094 15.264 137.246 15.2 137.422 15.2H147.07C149.342 15.2 151.014 15.616 152.086 16.448C153.174 17.264 153.718 18.504 153.718 20.168V20.24C153.718 21.008 153.51 21.664 153.094 22.208C152.678 22.752 152.246 23.096 151.798 23.24ZM147.214 20.384C147.214 20.096 147.126 19.848 146.95 19.64C146.79 19.432 146.55 19.328 146.23 19.328H143.014V21.512H146.23C146.55 21.512 146.79 21.4 146.95 21.176C147.126 20.936 147.214 20.672 147.214 20.384ZM146.494 27.872C146.862 27.872 147.134 27.752 147.31 27.512C147.502 27.256 147.598 26.976 147.598 26.672V26.648C147.598 26.344 147.494 26.08 147.286 25.856C147.094 25.632 146.83 25.52 146.494 25.52H143.014V27.872H146.494ZM173.149 27.08C173.325 27.08 173.477 27.144 173.605 27.272C173.733 27.4 173.797 27.552 173.797 27.728V31.352C173.797 31.528 173.733 31.68 173.605 31.808C173.477 31.936 173.325 32 173.149 32H159.133C158.957 32 158.805 31.936 158.677 31.808C158.549 31.68 158.485 31.528 158.485 31.352V15.848C158.485 15.672 158.549 15.52 158.677 15.392C158.805 15.264 158.957 15.2 159.133 15.2H164.317C164.493 15.2 164.645 15.264 164.773 15.392C164.901 15.52 164.965 15.672 164.965 15.848V27.08H173.149ZM185.716 32.24C183.028 32.24 180.892 31.656 179.308 30.488C177.74 29.32 176.956 27.496 176.956 25.016V15.848C176.956 15.672 177.02 15.52 177.148 15.392C177.276 15.264 177.428 15.2 177.604 15.2H182.62C182.796 15.2 182.948 15.264 183.076 15.392C183.204 15.52 183.268 15.672 183.268 15.848V25.4C183.268 26.056 183.484 26.56 183.916 26.912C184.364 27.264 184.964 27.44 185.716 27.44C186.468 27.44 187.06 27.264 187.492 26.912C187.94 26.56 188.164 26.056 188.164 25.4V15.848C188.164 15.672 188.228 15.52 188.356 15.392C188.484 15.264 188.636 15.2 188.812 15.2H193.828C194.004 15.2 194.156 15.264 194.284 15.392C194.412 15.52 194.476 15.672 194.476 15.848V25.016C194.476 27.496 193.684 29.32 192.1 30.488C190.532 31.656 188.404 32.24 185.716 32.24ZM213.882 27.32C214.058 27.32 214.21 27.384 214.338 27.512C214.466 27.64 214.53 27.792 214.53 27.968V31.352C214.53 31.528 214.466 31.68 214.338 31.808C214.21 31.936 214.058 32 213.882 32H198.714C198.538 32 198.386 31.936 198.258 31.808C198.13 31.68 198.066 31.528 198.066 31.352V15.848C198.066 15.672 198.13 15.52 198.258 15.392C198.386 15.264 198.538 15.2 198.714 15.2H213.642C213.818 15.2 213.97 15.264 214.098 15.392C214.226 15.52 214.29 15.672 214.29 15.848V19.232C214.29 19.408 214.226 19.56 214.098 19.688C213.97 19.816 213.818 19.88 213.642 19.88H204.306V21.392H212.322C212.498 21.392 212.65 21.456 212.778 21.584C212.906 21.712 212.97 21.864 212.97 22.04V25.16C212.97 25.336 212.906 25.488 212.778 25.616C212.65 25.744 212.498 25.808 212.322 25.808H204.306V27.32H213.882ZM227.817 21.296C229.577 21.488 230.985 21.8 232.041 22.232C233.113 22.664 233.889 23.232 234.369 23.936C234.849 24.64 235.089 25.52 235.089 26.576C235.089 27.728 234.713 28.736 233.961 29.6C233.225 30.448 232.201 31.104 230.889 31.568C229.577 32.016 228.081 32.24 226.401 32.24C224.529 32.24 222.945 32.008 221.649 31.544C220.353 31.08 219.385 30.464 218.745 29.696C218.105 28.912 217.785 28.056 217.785 27.128C217.785 26.968 217.833 26.84 217.929 26.744C218.041 26.648 218.177 26.6 218.337 26.6H223.257C223.593 26.6 223.865 26.704 224.073 26.912C224.345 27.168 224.649 27.344 224.985 27.44C225.321 27.52 225.793 27.56 226.401 27.56C227.921 27.56 228.681 27.328 228.681 26.864C228.681 26.672 228.577 26.512 228.369 26.384C228.177 26.24 227.825 26.12 227.313 26.024C226.817 25.912 226.081 25.8 225.105 25.688C222.913 25.432 221.233 24.888 220.065 24.056C218.897 23.208 218.313 22.016 218.313 20.48C218.313 19.392 218.641 18.432 219.297 17.6C219.953 16.768 220.881 16.12 222.081 15.656C223.297 15.192 224.705 14.96 226.305 14.96C227.969 14.96 229.425 15.224 230.673 15.752C231.921 16.264 232.873 16.904 233.529 17.672C234.185 18.44 234.513 19.192 234.513 19.928C234.513 20.088 234.457 20.216 234.345 20.312C234.249 20.408 234.113 20.456 233.937 20.456H228.777C228.505 20.456 228.257 20.36 228.033 20.168C227.857 20.008 227.649 19.88 227.409 19.784C227.169 19.688 226.801 19.64 226.305 19.64C225.233 19.64 224.697 19.864 224.697 20.312C224.697 20.552 224.905 20.744 225.321 20.888C225.737 21.016 226.569 21.152 227.817 21.296Z" fill="#F5F5F5"/>
<path d="M265 15.4758C260.292 15.4758 256.476 19.2924 256.476 24.0001C256.476 28.7077 260.292 32.5243 265 32.5243C269.708 32.5243 273.524 28.7077 273.524 24.0001C273.524 19.2924 269.708 15.4758 265 15.4758ZM265.001 31.3466C260.954 31.3466 257.653 28.0461 257.653 23.9993C257.653 19.9525 260.954 16.652 265.001 16.652C269.048 16.652 272.348 19.9525 272.348 23.9993C272.347 28.0461 269.047 31.3466 265.001 31.3466Z" fill="#00A5C0"/>
<path d="M265 21.0908C263.398 21.0908 262.091 22.3977 262.091 24C262.091 25.6024 263.398 26.9085 265 26.9085C266.602 26.9085 267.909 25.6017 267.909 24C267.909 22.3977 266.602 21.0908 265 21.0908Z" fill="#00A5C0"/>
<path d="M265 4C253.985 4 245 12.9846 245 24C245 35.0154 253.985 44 265 44C276.015 44 285 35.0154 285 24C285 12.9846 276.015 4 265 4ZM259.943 41.2801C258.981 41.119 258.042 40.8272 257.142 40.3965C256.241 39.9651 255.426 39.4149 254.697 38.7659L257.988 33.0462C258.553 33.641 259.216 34.1318 259.97 34.4942C260.725 34.8558 261.523 35.0644 262.34 35.1327L259.943 41.2801ZM265 34.0004C259.477 34.0004 255 29.5229 255 24.0007C255 18.4786 259.478 14.0011 265 14.0011C270.523 14.0011 275 18.4786 275 24.0007C275 29.5229 270.522 34.0004 265 34.0004ZM272.011 14.9545C271.446 14.3605 270.784 13.8689 270.029 13.5073C269.275 13.1457 268.477 12.9371 267.659 12.8688L270.056 6.72062C271.018 6.88175 271.957 7.17282 272.858 7.60423C273.758 8.03564 274.574 8.58585 275.303 9.23408L272.011 14.9545Z" fill="#00A5C0"/>
<rect x="242" y="1" width="46" height="46" stroke="#00A5C0" stroke-width="2"/>
</svg>
