<svg width="120" height="40" viewBox="0 0 120 40" fill="none" xmlns="http://www.w3.org/2000/svg">
<rect width="120" height="40" fill="#F5F5F5"/>
<rect width="80" height="40" fill="#00A5C0"/>
<path d="M10.72 9.756C12.2507 9.93333 13.338 10.2647 13.982 10.75C14.6353 11.226 14.962 11.9447 14.962 12.906C14.962 13.8673 14.4907 14.6467 13.548 15.244C12.6053 15.8413 11.3547 16.14 9.796 16.14C8.23733 16.14 7.024 15.8553 6.156 15.286C5.29733 14.7073 4.868 13.998 4.868 13.158C4.868 12.9527 4.97533 12.85 5.19 12.85H8.06C8.256 12.85 8.41467 12.9107 8.536 13.032C8.79733 13.284 9.25 13.41 9.894 13.41C10.7807 13.41 11.224 13.2747 11.224 13.004C11.224 12.836 11.084 12.7053 10.804 12.612C10.524 12.5093 9.96867 12.4113 9.138 12.318C6.49667 12.0007 5.176 10.988 5.176 9.28C5.176 8.31867 5.60067 7.544 6.45 6.956C7.29933 6.35867 8.43333 6.06 9.852 6.06C11.28 6.06 12.4327 6.37267 13.31 6.998C14.1873 7.614 14.626 8.26733 14.626 8.958C14.626 9.05133 14.5933 9.126 14.528 9.182C14.472 9.238 14.3927 9.266 14.29 9.266H11.28C11.112 9.266 10.9673 9.21 10.846 9.098C10.622 8.89267 10.286 8.79 9.838 8.79C9.21267 8.79 8.9 8.92067 8.9 9.182C8.9 9.322 9.02133 9.434 9.264 9.518C9.50667 9.59267 9.992 9.672 10.72 9.756ZM25.5685 15.118C24.6539 15.7993 23.4125 16.14 21.8445 16.14C20.2765 16.14 19.0305 15.7993 18.1065 15.118C17.1919 14.4367 16.7345 13.3727 16.7345 11.926V6.578C16.7345 6.47533 16.7719 6.38667 16.8465 6.312C16.9212 6.23733 17.0099 6.2 17.1125 6.2H20.0385C20.1412 6.2 20.2299 6.23733 20.3045 6.312C20.3792 6.38667 20.4165 6.47533 20.4165 6.578V12.15C20.4165 12.5327 20.5425 12.8267 20.7945 13.032C21.0559 13.2373 21.4059 13.34 21.8445 13.34C22.2832 13.34 22.6285 13.2373 22.8805 13.032C23.1419 12.8267 23.2725 12.5327 23.2725 12.15V6.578C23.2725 6.47533 23.3099 6.38667 23.3845 6.312C23.4592 6.23733 23.5479 6.2 23.6505 6.2H26.5765C26.6792 6.2 26.7679 6.23733 26.8425 6.312C26.9172 6.38667 26.9545 6.47533 26.9545 6.578V11.926C26.9545 13.3727 26.4925 14.4367 25.5685 15.118ZM35.5171 6.2H38.1211C38.2237 6.2 38.3124 6.23733 38.3871 6.312C38.4617 6.38667 38.4991 6.47533 38.4991 6.578V15.622C38.4991 15.7247 38.4617 15.8133 38.3871 15.888C38.3124 15.9627 38.2237 16 38.1211 16H35.8671C35.6431 16 35.4564 15.902 35.3071 15.706L32.2551 11.814V15.622C32.2551 15.7247 32.2177 15.8133 32.1431 15.888C32.0684 15.9627 31.9797 16 31.8771 16H29.2731C29.1704 16 29.0817 15.9627 29.0071 15.888C28.9324 15.8133 28.8951 15.7247 28.8951 15.622V6.578C28.8951 6.47533 28.9324 6.38667 29.0071 6.312C29.0817 6.23733 29.1704 6.2 29.2731 6.2H31.5411C31.7651 6.2 31.9471 6.29333 32.0871 6.48L35.1391 10.694V6.578C35.1391 6.47533 35.1764 6.38667 35.2511 6.312C35.3257 6.23733 35.4144 6.2 35.5171 6.2ZM41.1256 6.2H45.5916C46.6183 6.2 47.5096 6.33533 48.2656 6.606C49.0216 6.87667 49.6329 7.334 50.0996 7.978C50.5663 8.622 50.7996 9.42467 50.7996 10.386V11.814C50.7996 13.3073 50.2956 14.3947 49.2876 15.076C48.3636 15.692 47.1316 16 45.5916 16H41.1256C41.0229 16 40.9343 15.9627 40.8596 15.888C40.7849 15.8133 40.7476 15.7247 40.7476 15.622V6.578C40.7476 6.47533 40.7849 6.38667 40.8596 6.312C40.9343 6.23733 41.0229 6.2 41.1256 6.2ZM44.3876 8.93V13.27H45.6616C46.1003 13.27 46.4456 13.1673 46.6976 12.962C46.9589 12.7473 47.0896 12.4487 47.0896 12.066V10.134C47.0896 9.75133 46.9589 9.45733 46.6976 9.252C46.4456 9.03733 46.1003 8.93 45.6616 8.93H44.3876ZM54.8821 16H52.2361C52.1521 16 52.0775 15.972 52.0121 15.916C51.9561 15.8507 51.9281 15.79 51.9281 15.734C51.9281 15.678 51.9328 15.636 51.9421 15.608L54.9941 6.662C55.0781 6.354 55.2881 6.2 55.6241 6.2H59.5161C59.8521 6.2 60.0621 6.354 60.1461 6.662L63.1981 15.608C63.2075 15.636 63.2121 15.678 63.2121 15.734C63.2121 15.79 63.1795 15.8507 63.1141 15.916C63.0581 15.972 62.9881 16 62.9041 16H60.2581C59.9595 16 59.7495 15.8413 59.6281 15.524L59.2781 14.544H55.8621L55.5121 15.524C55.3908 15.8413 55.1808 16 54.8821 16ZM58.5641 11.814L57.5701 8.902L56.5761 11.814H58.5641ZM71.6207 6.2H74.5467C74.6307 6.2 74.7007 6.23267 74.7567 6.298C74.822 6.354 74.8547 6.41467 74.8547 6.48C74.8547 6.54533 74.8407 6.606 74.8127 6.662L71.2847 12.5V15.622C71.2847 15.7247 71.2473 15.8133 71.1727 15.888C71.098 15.9627 71.0093 16 70.9067 16H67.9247C67.822 16 67.7333 15.9627 67.6587 15.888C67.584 15.8133 67.5467 15.7247 67.5467 15.622V12.5L64.0327 6.662C64.0047 6.606 63.9907 6.54533 63.9907 6.48C63.9907 6.41467 64.0187 6.354 64.0747 6.298C64.14 6.23267 64.2147 6.2 64.2987 6.2H67.2527C67.514 6.2 67.7053 6.30733 67.8267 6.522L69.4087 9.294L71.0327 6.55C71.1727 6.31667 71.3687 6.2 71.6207 6.2ZM15.284 28.92C15.284 30.9733 13.968 32 11.336 32H5.568C5.46533 32 5.37667 31.9627 5.302 31.888C5.22733 31.8133 5.19 31.7247 5.19 31.622V22.578C5.19 22.4753 5.22733 22.3867 5.302 22.312C5.37667 22.2373 5.46533 22.2 5.568 22.2H11.196C12.5213 22.2 13.4967 22.4427 14.122 22.928C14.7567 23.404 15.074 24.1273 15.074 25.098V25.14C15.074 25.588 14.9527 25.9707 14.71 26.288C14.4673 26.6053 14.2153 26.806 13.954 26.89C14.318 27.002 14.6307 27.2493 14.892 27.632C15.1533 28.0053 15.284 28.4347 15.284 28.92ZM8.83 28.22V29.592H10.86C11.0747 29.592 11.2333 29.522 11.336 29.382C11.448 29.2327 11.504 29.0693 11.504 28.892V28.878C11.504 28.7007 11.4433 28.5467 11.322 28.416C11.21 28.2853 11.056 28.22 10.86 28.22H8.83ZM11.126 25.686C11.2287 25.546 11.28 25.392 11.28 25.224C11.28 25.056 11.2287 24.9113 11.126 24.79C11.0327 24.6687 10.8927 24.608 10.706 24.608H8.83V25.882H10.706C10.8927 25.882 11.0327 25.8167 11.126 25.686ZM21.6345 29.13H26.4085C26.5112 29.13 26.5999 29.1673 26.6745 29.242C26.7492 29.3167 26.7865 29.4053 26.7865 29.508V31.622C26.7865 31.7247 26.7492 31.8133 26.6745 31.888C26.5999 31.9627 26.5112 32 26.4085 32H18.2325C18.1299 32 18.0412 31.9627 17.9665 31.888C17.8919 31.8133 17.8545 31.7247 17.8545 31.622V22.578C17.8545 22.4753 17.8919 22.3867 17.9665 22.312C18.0412 22.2373 18.1299 22.2 18.2325 22.2H21.2565C21.3592 22.2 21.4479 22.2373 21.5225 22.312C21.5972 22.3867 21.6345 22.4753 21.6345 22.578V29.13ZM37.4631 31.118C36.5484 31.7993 35.3071 32.14 33.7391 32.14C32.1711 32.14 30.9251 31.7993 30.0011 31.118C29.0864 30.4367 28.6291 29.3727 28.6291 27.926V22.578C28.6291 22.4753 28.6664 22.3867 28.7411 22.312C28.8157 22.2373 28.9044 22.2 29.0071 22.2H31.9331C32.0357 22.2 32.1244 22.2373 32.1991 22.312C32.2737 22.3867 32.3111 22.4753 32.3111 22.578V28.15C32.3111 28.5327 32.4371 28.8267 32.6891 29.032C32.9504 29.2373 33.3004 29.34 33.7391 29.34C34.1777 29.34 34.5231 29.2373 34.7751 29.032C35.0364 28.8267 35.1671 28.5327 35.1671 28.15V22.578C35.1671 22.4753 35.2044 22.3867 35.2791 22.312C35.3537 22.2373 35.4424 22.2 35.5451 22.2H38.4711C38.5737 22.2 38.6624 22.2373 38.7371 22.312C38.8117 22.3867 38.8491 22.4753 38.8491 22.578V27.926C38.8491 29.3727 38.3871 30.4367 37.4631 31.118ZM44.5836 29.27H50.1696C50.2723 29.27 50.3609 29.3073 50.4356 29.382C50.5103 29.4567 50.5476 29.5453 50.5476 29.648V31.622C50.5476 31.7247 50.5103 31.8133 50.4356 31.888C50.3609 31.9627 50.2723 32 50.1696 32H41.3216C41.2189 32 41.1303 31.9627 41.0556 31.888C40.9809 31.8133 40.9436 31.7247 40.9436 31.622V22.578C40.9436 22.4753 40.9809 22.3867 41.0556 22.312C41.1303 22.2373 41.2189 22.2 41.3216 22.2H50.0296C50.1323 22.2 50.2209 22.2373 50.2956 22.312C50.3703 22.3867 50.4076 22.4753 50.4076 22.578V24.552C50.4076 24.6547 50.3703 24.7433 50.2956 24.818C50.2209 24.8927 50.1323 24.93 50.0296 24.93H44.5836V25.812H49.2596C49.3623 25.812 49.4509 25.8493 49.5256 25.924C49.6003 25.9987 49.6376 26.0873 49.6376 26.19V28.01C49.6376 28.1127 49.6003 28.2013 49.5256 28.276C49.4509 28.3507 49.3623 28.388 49.2596 28.388H44.5836V29.27ZM58.2981 25.756C59.8288 25.9333 60.9161 26.2647 61.5601 26.75C62.2135 27.226 62.5401 27.9447 62.5401 28.906C62.5401 29.8673 62.0688 30.6467 61.1261 31.244C60.1835 31.8413 58.9328 32.14 57.3741 32.14C55.8155 32.14 54.6021 31.8553 53.7341 31.286C52.8755 30.7073 52.4461 29.998 52.4461 29.158C52.4461 28.9527 52.5535 28.85 52.7681 28.85H55.6381C55.8341 28.85 55.9928 28.9107 56.1141 29.032C56.3755 29.284 56.8281 29.41 57.4721 29.41C58.3588 29.41 58.8021 29.2747 58.8021 29.004C58.8021 28.836 58.6621 28.7053 58.3821 28.612C58.1021 28.5093 57.5468 28.4113 56.7161 28.318C54.0748 28.0007 52.7541 26.988 52.7541 25.28C52.7541 24.3187 53.1788 23.544 54.0281 22.956C54.8775 22.3587 56.0115 22.06 57.4301 22.06C58.8581 22.06 60.0108 22.3727 60.8881 22.998C61.7655 23.614 62.2041 24.2673 62.2041 24.958C62.2041 25.0513 62.1715 25.126 62.1061 25.182C62.0501 25.238 61.9708 25.266 61.8681 25.266H58.8581C58.6901 25.266 58.5455 25.21 58.4241 25.098C58.2001 24.8927 57.8641 24.79 57.4161 24.79C56.7908 24.79 56.4781 24.9207 56.4781 25.182C56.4781 25.322 56.5995 25.434 56.8421 25.518C57.0848 25.5927 57.5701 25.672 58.2981 25.756Z" fill="#F5F5F5"/>
<path d="M100 12.8966C96.0771 12.8966 92.8966 16.0771 92.8966 20.0001C92.8966 23.9231 96.0771 27.1036 100 27.1036C103.924 27.1036 107.104 23.9231 107.104 20.0001C107.104 16.0771 103.924 12.8966 100 12.8966ZM100.001 26.1222C96.6284 26.1222 93.878 23.3718 93.878 19.9995C93.878 16.6271 96.6284 13.8767 100.001 13.8767C103.373 13.8767 106.124 16.6271 106.124 19.9995C106.123 23.3718 103.372 26.1222 100.001 26.1222Z" fill="#00A5C0"/>
<path d="M100 17.5757C98.6647 17.5757 97.5757 18.6647 97.5757 20C97.5757 21.3353 98.6647 22.4238 100 22.4238C101.335 22.4238 102.424 21.3347 102.424 20C102.424 18.6647 101.335 17.5757 100 17.5757Z" fill="#00A5C0"/>
<path d="M100 3.33336C90.8205 3.33336 83.3334 10.8205 83.3334 20C83.3334 29.1795 90.8205 36.6667 100 36.6667C109.18 36.6667 116.667 29.1795 116.667 20C116.667 10.8205 109.18 3.33336 100 3.33336ZM95.7862 34.4001C94.9843 34.2659 94.2015 34.0227 93.4516 33.6638C92.701 33.3043 92.0216 32.8458 91.4146 32.305L94.157 27.5385C94.6278 28.0342 95.1798 28.4432 95.8085 28.7452C96.4378 29.0465 97.1023 29.2204 97.7836 29.2773L95.7862 34.4001ZM100 28.3337C95.3976 28.3337 91.667 24.6025 91.667 20.0006C91.667 15.3988 95.3982 11.6676 100 11.6676C104.602 11.6676 108.333 15.3988 108.333 20.0006C108.333 24.6025 104.602 28.3337 100 28.3337ZM105.843 12.4621C105.372 11.9671 104.82 11.5575 104.191 11.2561C103.562 10.9548 102.897 10.7809 102.216 10.724L104.213 5.60055C105.015 5.73482 105.798 5.97738 106.549 6.33689C107.298 6.69639 107.979 7.15491 108.586 7.69509L105.843 12.4621Z" fill="#00A5C0"/>
<rect x="80.8333" y="0.833333" width="38.3333" height="38.3333" stroke="#00A5C0" stroke-width="1.66667"/>
</svg>
